<?xml version="1.0" standalone="no"?>
<!DOCTYPE svg PUBLIC "-//W3C//DTD SVG 1.1//EN" "http://www.w3.org/Graphics/SVG/1.1/DTD/svg11.dtd" >
<svg xmlns="http://www.w3.org/2000/svg">
<metadata>
This is a custom SVG webfont generated by Fontspring.
Designer    : FontSite.com
Foundry URL : http://www.fontsite.com
</metadata>
<defs>
<font id="webfont" horiz-adv-x="533" >
<font-face units-per-em="1000" ascent="750" descent="-250" />
<missing-glyph horiz-adv-x="250" />
<glyph unicode=" "  horiz-adv-x="250" />
<glyph unicode="&#x09;" horiz-adv-x="250" />
<glyph unicode="&#xa0;" horiz-adv-x="250" />
<glyph unicode="!" horiz-adv-x="288" d="M129 166q-45 258 -45 346q0 77 15.5 119.5t44.5 42.5t44.5 -42.5t15.5 -119.5q0 -88 -45 -346h-30zM80 58q0 26 19 45t45 19q27 0 46 -19t19 -45q0 -27 -19 -46t-46 -19q-26 0 -45 19t-19 46z" />
<glyph unicode="&#x22;" horiz-adv-x="373" d="M260 461l-20 206h80l-20 -206h-40zM73 461l-20 206h80l-20 -206h-40z" />
<glyph unicode="#" horiz-adv-x="615" d="M129 87l39 142h-135l12 44h135l33 123h-136l12 47h137l37 137h47l-37 -137h128l37 137h49l-38 -137h132l-11 -47h-133l-34 -123h135l-13 -44h-133l-38 -142h-47l37 142h-128l-38 -142h-49zM228 273h129l32 123h-128z" />
<glyph unicode="$" d="M52 67v88q94 -72 195 -83v236q-63 20 -85.5 29t-43.5 24q-72 52 -72 135q0 46 25.5 86t68.5 63q18 10 55 18t50 5q1 0 2 -1v58h38v-58q89 -3 170 -60v-93q-37 37 -82.5 59.5t-87.5 25.5v-224q91 -31 119 -49q84 -54 84 -143q0 -75 -56.5 -124.5t-146.5 -52.5v-94h-38v94 q-80 -3 -195 61zM183 412q20 -12 64 -25v215q-44 -1 -71 -16q-51 -29 -51 -82q0 -58 58 -92zM285 73q58 7 90 35t32 72q0 38 -23 61.5t-82 47.5l-17 7v-223z" />
<glyph unicode="%" horiz-adv-x="735" d="M154 16l393 658l34 -20l-391 -661zM183 325q-63 0 -103 48t-40 124q0 74 40.5 122.5t102.5 48.5t102 -48.5t40 -124.5q0 -74 -40 -122t-102 -48zM182 370q41 0 67 35t26 91q0 55 -26.5 90.5t-66.5 35.5t-66.5 -35.5t-26.5 -88.5q0 -58 25.5 -93t67.5 -35zM410 170 q0 74 40.5 122.5t102.5 48.5t102 -48.5t40 -124.5q0 -74 -40 -122t-102 -48q-63 0 -103 48t-40 124zM459 171q0 -58 25.5 -93t67.5 -35q41 0 67 35t26 91q0 55 -26.5 90.5t-66.5 35.5t-66.5 -35.5t-26.5 -88.5z" />
<glyph unicode="&#x26;" horiz-adv-x="624" d="M53 158q0 78 63 132q28 24 80 54q-76 88 -76 158q0 65 49 110t120 45q67 0 113 -42t46 -103q0 -47 -30 -88q-23 -32 -93 -76l-20 -13l128 -147q51 66 69 143h67q-5 -35 -34 -95t-60 -95l125 -141h-95l-79 87q-53 -51 -96.5 -72t-95.5 -21q-78 0 -129.5 46.5t-51.5 117.5z M265 381q67 38 91 65t24 62q0 37 -26.5 63t-64.5 26q-40 0 -66.5 -25t-26.5 -62q0 -53 69 -129zM126 163q0 -42 34.5 -73t82.5 -31q69 0 141 75l-145 165q-62 -37 -87.5 -67.5t-25.5 -68.5z" />
<glyph unicode="'" horiz-adv-x="187" d="M73 461l-20 206h80l-20 -206h-40z" />
<glyph unicode="(" horiz-adv-x="339" d="M186 -63q57 -111 133 -184h-74q-198 195 -198 456q0 124 52 243.5t147 214.5h73q-194 -199 -194 -451q0 -158 61 -279z" />
<glyph unicode=")" horiz-adv-x="339" d="M164 -40q50 109 50 256q0 253 -194 451h73q95 -94 147 -214t52 -245q0 -258 -198 -455h-74q88 87 144 207z" />
<glyph unicode="*" horiz-adv-x="495" d="M171 297l-64 44l117 122l-3 9l-168 24l24 74l152 -75l4 4l-23 168h76l-29 -167l9 -5l152 76l23 -75l-167 -27l-3 -7l121 -114l-62 -48l-78 148h-8z" />
<glyph unicode="+" d="M233 104v200h-200v66h200v200h66v-200h201v-66h-201v-200h-66z" />
<glyph unicode="," horiz-adv-x="248" d="M49 56q0 28 19.5 47t48.5 19q35 0 58.5 -26t23.5 -64q0 -32 -17.5 -63t-45.5 -49q-30 -20 -84 -29l-1 15q25 15 41 37t16 42v5q-59 16 -59 66z" />
<glyph unicode="-" horiz-adv-x="259" d="M0 191v71h259v-71h-259z" />
<glyph unicode="." horiz-adv-x="248" d="M60 58q0 26 19 45t45 19q27 0 46 -19t19 -45q0 -27 -19 -46t-46 -19q-26 0 -45 19t-19 46z" />
<glyph unicode="/" horiz-adv-x="499" d="M0 -240h-60l446 907h60z" />
<glyph unicode="0" d="M267 -7q-104 0 -167.5 96t-63.5 253q0 147 64.5 239.5t166.5 92.5q103 0 167 -93t64 -243q0 -153 -64 -249t-167 -96zM268 61q68 0 110.5 75t42.5 196q0 123 -42 198.5t-111 75.5q-68 0 -110.5 -75t-42.5 -196q0 -123 42 -198.5t111 -75.5z" />
<glyph unicode="1" d="M264 0v578l-144 -125l-24 58l185 158h62v-669h-79z" />
<glyph unicode="2" d="M35 0v13q94 81 204 229q98 131 98 225q0 56 -40 94t-99 38q-71 0 -146 -75v90q83 60 167 60t140.5 -57t56.5 -142q0 -165 -237 -405h293v-70h-437z" />
<glyph unicode="3" d="M94 30v83q61 -51 133 -51q59 0 97 34.5t38 87.5q0 56 -43 90t-115 34q-33 0 -73 -11v84q37 -9 81 -9q65 0 105 33t40 85q0 50 -40 84.5t-98 34.5q-64 0 -127 -50v83q76 32 134 32q92 0 151 -50t59 -129q0 -55 -28.5 -96t-79.5 -61q114 -39 114 -160q0 -79 -58 -132 t-145 -53q-71 0 -145 37z" />
<glyph unicode="4" d="M30 235v37l335 395h40v-371h99v-61h-99v-235h-74v235h-301zM127 296h204v246z" />
<glyph unicode="5" d="M81 34v78q60 -47 135 -47q67 0 111 42t44 107q0 66 -46.5 108.5t-117.5 42.5q-33 0 -73 -15l17 317h280v-71h-207l-5 -182q24 4 39 4q83 0 139.5 -59.5t56.5 -146.5q0 -93 -65.5 -156t-162.5 -63q-79 0 -145 41z" />
<glyph unicode="6" d="M69 219q0 82 39 167.5t107 156.5q67 69 167 131l57 -58q-97 -59 -157.5 -121.5t-100.5 -142.5q55 27 105 27q77 0 129.5 -55t52.5 -134q0 -86 -55 -141.5t-141 -55.5q-89 0 -146 63t-57 163zM151 229q0 -72 34 -116.5t88 -44.5q49 0 82.5 35t33.5 87q0 53 -35.5 89 t-87.5 36q-43 0 -110 -39l-2 -10q-3 -15 -3 -37z" />
<glyph unicode="7" d="M121 9l255 588h-327v70h443l-289 -674z" />
<glyph unicode="8" d="M67 182q0 108 100 161q-87 56 -87 150q0 76 54.5 128.5t133.5 52.5q80 0 134.5 -52.5t54.5 -129.5q0 -47 -23.5 -86.5t-64.5 -62.5q97 -55 97 -161q0 -80 -58 -134.5t-143 -54.5q-82 0 -140 55.5t-58 133.5zM268 378q49 0 83 34.5t34 82.5q0 47 -34 82t-81 35 q-49 0 -83.5 -34t-34.5 -82q0 -49 34 -83.5t82 -34.5zM139 185q0 -54 37 -91.5t90 -37.5t90 37.5t37 90.5q0 52 -37 89.5t-88 37.5q-54 0 -91.5 -36.5t-37.5 -89.5z" />
<glyph unicode="9" d="M99 51q97 59 157.5 121.5t100.5 142.5q-55 -27 -105 -27q-77 0 -129.5 55t-52.5 134q0 86 55 141.5t141 55.5q89 0 146 -63t57 -163q0 -82 -39 -167.5t-107 -156.5q-66 -67 -167 -131zM271 352q44 0 111 39q5 29 5 47q0 72 -34 116.5t-88 44.5q-49 0 -82.5 -35t-33.5 -87 q0 -53 35 -89t87 -36z" />
<glyph unicode=":" horiz-adv-x="248" d="M124 329q-26 0 -45 19t-19 46q0 26 19 45t45 19q27 0 46 -19t19 -45q0 -27 -19 -46t-46 -19zM60 58q0 26 19 45t45 19q27 0 46 -19t19 -45q0 -27 -19 -46t-46 -19q-26 0 -45 19t-19 46z" />
<glyph unicode=";" horiz-adv-x="248" d="M120 329q-26 0 -45 19t-19 46q0 26 19 45t45 19q27 0 46 -19t19 -45q0 -27 -19 -46t-46 -19zM49 56q0 28 19.5 47t48.5 19q35 0 58.5 -26t23.5 -64q0 -32 -17.5 -63t-45.5 -49q-30 -20 -84 -29l-1 15q25 15 41 37t16 42v5q-59 16 -59 66z" />
<glyph unicode="&#x3c;" horiz-adv-x="500" d="M33 304v65l433 204v-75l-353 -161l353 -162v-74z" />
<glyph unicode="=" d="M33 372v66h466v-66h-466zM33 231v66h466v-66h-466z" />
<glyph unicode="&#x3e;" horiz-adv-x="500" d="M34 101v74l353 162l-353 161v75l433 -204v-65z" />
<glyph unicode="?" horiz-adv-x="316" d="M147 165q-42 40 -42 96q0 43 38 106q39 64 49 87.5t10 54.5q0 40 -19.5 63.5t-52.5 23.5q-49 0 -77 -46l-13 5l35 105q38 14 73 14q58 0 93 -38t35 -102q0 -52 -26 -106q-12 -24 -57 -89q-39 -57 -39 -97q0 -32 23 -61zM81 58q0 26 19 45t45 19q27 0 46 -19t19 -45 q0 -27 -19 -46t-46 -19q-26 0 -45 19t-19 46z" />
<glyph unicode="@" horiz-adv-x="713" d="M35 300q0 160 101 268.5t250 108.5q122 0 204.5 -78t82.5 -193q0 -124 -95 -199q-65 -50 -125 -50q-23 0 -38.5 10.5t-32.5 38.5q-60 -27 -122 -27q-42 0 -66.5 24.5t-24.5 67.5q0 85 71 158q87 92 223 92q28 0 78 -6l-96 -256q-7 -17 -7 -29q0 -23 28 -23q47 0 92 45 q62 59 62 150q0 95 -68 159.5t-168 64.5q-126 0 -209.5 -92.5t-83.5 -232.5q0 -118 70.5 -188.5t189.5 -70.5q84 0 158 36.5t116 98.5l50 -1q-32 -62 -91 -106q-104 -80 -237 -80q-140 0 -226 85.5t-86 224.5zM291 236q37 0 97 33l73 192q-12 2 -24 2q-73 0 -127 -42 q-32 -25 -52.5 -60.5t-20.5 -67.5q0 -26 14.5 -41.5t39.5 -15.5z" />
<glyph unicode="A" horiz-adv-x="657" d="M5 0l288 667h68l291 -667h-93l-86 210h-292l-85 -210h-91zM208 269h239l-119 279z" />
<glyph unicode="B" horiz-adv-x="550" d="M76 0v667h200q55 0 100 -25q37 -20 60 -60.5t23 -86.5q0 -58 -35 -101q-20 -24 -63 -45q57 -11 94 -42q58 -52 58 -126q0 -38 -19.5 -76t-51.5 -64q-53 -41 -135 -41h-231zM160 366h41q84 0 121 24q55 36 55 100q0 52 -35.5 85t-90.5 33h-91v-242zM160 59h79 q100 0 138 26q50 32 50 97q0 36 -19 65.5t-52 45.5q-36 17 -119 17h-77v-251z" />
<glyph unicode="C" horiz-adv-x="641" d="M207 139q74 -71 185 -71q107 0 211 62v-79q-100 -58 -217 -58q-150 0 -247.5 94t-97.5 239q0 147 101 247.5t249 100.5q105 0 212 -54v-84q-111 64 -202 64q-125 0 -199 -79q-35 -36 -55.5 -88t-20.5 -104q0 -112 81 -190z" />
<glyph unicode="D" horiz-adv-x="704" d="M76 0v667h230q72 0 119.5 -11.5t90.5 -39.5q67 -43 107 -120t40 -162q0 -91 -45.5 -169.5t-123.5 -121.5q-76 -43 -206 -43h-212zM160 67h104q126 0 193 42q121 77 121 223q0 77 -36.5 141.5t-98.5 97.5q-54 29 -163 29h-120v-533z" />
<glyph unicode="E" horiz-adv-x="491" d="M76 0v667h369v-67h-285v-229h280v-67h-280v-237h293v-67h-377z" />
<glyph unicode="F" horiz-adv-x="455" d="M76 0v667h355v-67h-271v-219h248v-67h-248v-314h-84z" />
<glyph unicode="G" horiz-adv-x="682" d="M207 143q79 -76 192 -76q73 0 147 30v160h-117v62h190v-279q-115 -47 -223 -47q-153 0 -254 95.5t-101 240.5q0 151 107 252q97 93 249 93q108 0 207 -45v-82q-113 53 -200 53q-122 0 -199 -79q-37 -37 -58 -89t-21 -104q0 -106 81 -185z" />
<glyph unicode="H" horiz-adv-x="711" d="M76 0v667h84v-295h391v295h84v-667h-84v305h-391v-305h-84z" />
<glyph unicode="I" horiz-adv-x="235" d="M76 0v667h83v-667h-83z" />
<glyph unicode="J" horiz-adv-x="305" d="M11 -24l-18 87q40 -34 82 -34q71 0 71 95v543h84v-543q0 -51 -6.5 -76t-25.5 -47q-39 -46 -101 -46q-38 0 -86 21z" />
<glyph unicode="K" horiz-adv-x="594" d="M76 0v667h84v-331l301 331h103l-313 -332l332 -335h-107l-316 329v-329h-84z" />
<glyph unicode="L" horiz-adv-x="481" d="M76 0v667h84v-600h303v-67h-387z" />
<glyph unicode="M" horiz-adv-x="764" d="M76 0v667h86l220 -292l227 292h79v-667h-84v540l-222 -287l-222 288v-541h-84z" />
<glyph unicode="N" horiz-adv-x="754" d="M76 0v667h67l451 -533v533h84v-667h-71l-447 525v-525h-84z" />
<glyph unicode="O" horiz-adv-x="755" d="M41 338q0 139 98.5 237.5t238.5 98.5q141 0 238.5 -98.5t97.5 -241.5q0 -142 -98 -241.5t-238 -99.5q-143 0 -240 99.5t-97 245.5zM126 336q0 -115 72 -192t180 -77q107 0 179 76.5t72 189.5q0 112 -72.5 189.5t-178.5 77.5q-105 0 -178.5 -77t-73.5 -187z" />
<glyph unicode="P" horiz-adv-x="523" d="M76 0v667h188q95 0 150 -33q84 -51 84 -152q0 -106 -95 -159q-42 -23 -137 -23h-106v-300h-84zM160 359h83q88 0 115 16q55 32 55 108q0 69 -52 105q-31 20 -101 20h-100v-249z" />
<glyph unicode="Q" horiz-adv-x="755" d="M334 -4q-128 18 -210.5 113t-82.5 225q0 143 97.5 241.5t238.5 98.5q142 0 239.5 -98.5t97.5 -241.5q0 -115 -67 -205.5t-176 -122.5q102 -42 167 -42q37 0 81 27l10 -12l-80 -82q-95 2 -165.5 24.5t-149.5 74.5zM126 336q0 -115 72 -192t180 -77q107 0 179 76.5 t72 189.5q0 112 -72.5 189.5t-178.5 77.5q-105 0 -178.5 -77t-73.5 -187z" />
<glyph unicode="R" horiz-adv-x="601" d="M76 0v667h205q90 0 146.5 -48t56.5 -125q0 -68 -44 -117q-25 -28 -75 -44q21 -10 37 -28.5t46 -65.5l148 -239h-93l-107 173q-1 1 -2.5 4.5t-5 9.5t-6.5 12q-37 67 -66.5 91.5t-74.5 24.5h-81v-315h-84zM160 368h76q76 0 112 26q51 37 51 100q0 60 -48 94q-31 20 -90 20 h-101v-240z" />
<glyph unicode="S" horiz-adv-x="461" d="M58 47v85q80 -70 155 -70q54 0 88.5 31.5t34.5 80.5q0 52 -43 83q-31 24 -91 52q-70 34 -94 55q-57 48 -57 131q0 76 53 127.5t132 51.5q81 0 157 -52v-84q-70 66 -144 66q-50 0 -84 -32t-34 -79q0 -48 34 -76q20 -17 95 -56q83 -43 113 -72q44 -42 44 -111 q0 -80 -55.5 -133t-140.5 -53q-83 0 -163 55z" />
<glyph unicode="T" horiz-adv-x="555" d="M235 0v600h-227v67h539v-67h-228v-600h-84z" />
<glyph unicode="U" horiz-adv-x="716" d="M124 108q-48 71 -48 196v363h84v-341q0 -71 6.5 -106.5t25.5 -66.5q25 -40 70 -63t97 -23q56 0 101 26.5t70 73.5q26 49 26 169v331h84v-377q0 -130 -63 -203q-82 -94 -217 -94q-74 0 -136.5 30.5t-99.5 84.5z" />
<glyph unicode="V" horiz-adv-x="610" d="M282 0l-271 667h94l204 -518l208 518h83l-269 -667h-49z" />
<glyph unicode="W" horiz-adv-x="1029" d="M271 0l-260 667h89l195 -516l191 516h59l193 -510l191 510h90l-256 -667h-46l-201 521l-196 -521h-49z" />
<glyph unicode="X" horiz-adv-x="698" d="M4 0l292 342l-278 325h112l221 -261l219 261h103l-273 -320l294 -347h-108l-241 281l-238 -281h-103z" />
<glyph unicode="Y" horiz-adv-x="589" d="M252 0v350l-247 317h107l182 -245l181 245h108l-247 -317v-350h-84z" />
<glyph unicode="Z" horiz-adv-x="633" d="M21 0l440 593h-408v74h560l-434 -593h426v-74h-584z" />
<glyph unicode="[" horiz-adv-x="272" d="M160 -189h78v-51h-158v907h158v-51h-78v-805z" />
<glyph unicode="\" horiz-adv-x="499" d="M499 -240l-446 907h60l446 -907h-60z" />
<glyph unicode="]" horiz-adv-x="272" d="M33 -189h78v805h-78v51h158v-907h-158v51z" />
<glyph unicode="^" horiz-adv-x="500" d="M24 364l176 305h99l176 -305h-81l-145 245l-144 -245h-81z" />
<glyph unicode="_" horiz-adv-x="500" d="M0 -65h500v-70h-500v70z" />
<glyph unicode="`" horiz-adv-x="500" d="M236 507l-133 140h90l95 -140h-52z" />
<glyph unicode="a" horiz-adv-x="435" d="M43 109q0 42 26.5 75.5t74.5 51.5q43 16 150 30v37q0 46 -17 63q-23 26 -64 26q-74 0 -147 -69v73q81 62 156 62q80 0 120 -53q24 -32 24 -91v-225q0 -19 3.5 -25t13.5 -6q14 0 34 17q1 1 11 9l-9 -56q-46 -34 -82 -34q-19 0 -27.5 11t-10.5 37q-65 -49 -127 -49 q-57 0 -93 32.5t-36 83.5zM113 113q0 -31 22 -50.5t56 -19.5q48 0 101 38v143q-70 -6 -103 -19q-34 -13 -55 -38.5t-21 -53.5z" />
<glyph unicode="b" horiz-adv-x="505" d="M63 14v653h74v-269q34 33 63.5 46.5t66.5 13.5q83 0 142.5 -65.5t59.5 -157.5q0 -64 -27 -117.5t-74 -84.5q-64 -40 -138 -40q-55 0 -167 21zM137 75q44 -16 84 -16q76 0 123 48t47 125q0 71 -39.5 115.5t-103.5 44.5q-28 0 -51 -11.5t-60 -43.5v-262z" />
<glyph unicode="c" horiz-adv-x="404" d="M36 230q0 99 64 163.5t162 64.5q52 0 110 -23v-69q-56 26 -100 26q-69 0 -113.5 -46.5t-44.5 -118.5q0 -73 44.5 -120.5t112.5 -47.5q50 0 109 28v-69q-56 -25 -119 -25q-98 0 -161.5 67t-63.5 170z" />
<glyph unicode="d" horiz-adv-x="505" d="M36 226q0 96 66.5 164t159.5 68q54 0 106 -29v238h74v-667h-74v19q-51 -26 -105 -26q-95 0 -161 67.5t-66 165.5zM113 225q0 -70 45.5 -118t113.5 -48q47 0 96 28v275q-57 30 -100 30q-66 0 -110.5 -48t-44.5 -119z" />
<glyph unicode="e" horiz-adv-x="462" d="M36 230q0 97 58 162.5t144 65.5q54 0 100 -27.5t69 -73.5q22 -43 22 -121h-318q2 -83 42.5 -130t110.5 -47q74 0 156 48v-63q-81 -51 -169 -51q-93 0 -154 67t-61 170zM117 282h241q-4 55 -34.5 86.5t-80.5 31.5q-48 0 -83.5 -33.5t-42.5 -84.5z" />
<glyph unicode="f" horiz-adv-x="270" d="M93 0v384h-76v55h76v33q0 74 19 121q36 87 138 87q31 0 77 -14v-65q-38 13 -63 13q-66 0 -88 -59q-10 -30 -10 -80v-36h84v-55h-83v-384h-74z" />
<glyph unicode="g" horiz-adv-x="452" d="M91 67q0 46 80 71q-111 41 -111 152q0 71 51.5 116t132.5 45h191v-49l-100 3q58 -43 58 -115q0 -84 -71 -130q-24 -15 -97 -37q-59 -19 -59 -43q0 -19 20 -29.5t67 -17.5q57 -8 80 -15t46 -23q52 -38 52 -93q0 -62 -58.5 -102t-148.5 -40q-87 0 -141 35.5t-54 92.5 q0 96 127 115q-31 10 -48 27t-17 37zM226 190q41 0 70.5 29.5t29.5 71.5t-29.5 71t-71.5 29q-40 0 -69.5 -29t-29.5 -69q0 -43 29.5 -73t70.5 -30zM98 -109q0 -36 36 -58.5t93 -22.5q62 0 97.5 22.5t35.5 62.5q0 38 -36 60t-98 22q-58 0 -93 -23.5t-35 -62.5z" />
<glyph unicode="h" horiz-adv-x="496" d="M63 0v667h76v-291q55 82 140 82q91 0 133 -81q22 -44 22 -131v-246h-74v242q0 70 -19 100q-29 46 -84 46q-69 0 -120 -77v-311h-74z" />
<glyph unicode="i" horiz-adv-x="200" d="M100 523q-19 0 -33 14t-14 34q0 19 14 32.5t33 13.5q20 0 33.5 -13.5t13.5 -33.5t-13.5 -33.5t-33.5 -13.5zM63 0v451h74v-451h-74z" />
<glyph unicode="j" horiz-adv-x="200" d="M99 523q-19 0 -33 14t-14 34q0 19 14 32.5t33 13.5t33 -13.5t14 -33.5t-14 -33.5t-33 -13.5zM63 -64v515h74v-516q0 -85 -34 -127q-19 -24 -42 -35t-61 -14l-29 65q53 4 72.5 27.5t19.5 84.5z" />
<glyph unicode="k" horiz-adv-x="491" d="M63 0v667h74v-422l218 206h98l-228 -215l272 -236h-105l-255 223v-223h-74z" />
<glyph unicode="l" horiz-adv-x="200" d="M63 0v667h74v-667h-74z" />
<glyph unicode="m" horiz-adv-x="763" d="M63 0v451h74l-2 -59q43 40 69 53t62 13q88 0 130 -84q41 47 73.5 65.5t74.5 18.5q45 0 82 -22t55 -60q20 -41 20 -109v-267h-74v255q0 77 -32 106q-29 27 -75 27q-29 0 -52.5 -12t-51.5 -43v-333h-74v257q0 42 -6 63.5t-23 38.5q-29 29 -72 29q-55 0 -104 -55v-333h-74z " />
<glyph unicode="n" horiz-adv-x="491" d="M63 0v451h74v-76q35 45 67 64t72 19q41 0 77.5 -20t55.5 -53q20 -36 20 -118v-267h-74v269q0 66 -27 92q-29 27 -72 27q-73 0 -119 -74v-314h-74z" />
<glyph unicode="o" horiz-adv-x="528" d="M36 228q0 95 67 162.5t161 67.5q95 0 161.5 -67.5t66.5 -164.5t-66.5 -165t-161.5 -68t-161.5 68.5t-66.5 166.5zM114 229q0 -71 44 -120.5t106 -49.5t106 49.5t44 118.5t-43.5 117t-106.5 48q-62 0 -106 -47.5t-44 -115.5z" />
<glyph unicode="p" horiz-adv-x="502" d="M137 24v-264h-74v691h74v-30q54 37 108 37q95 0 158 -67.5t63 -168.5q0 -97 -64.5 -163t-158.5 -66q-52 0 -106 31zM137 89q47 -30 95 -30q65 0 110.5 48.5t45.5 117.5q0 71 -46 119t-115 48q-45 0 -90 -24v-279z" />
<glyph unicode="q" horiz-adv-x="503" d="M36 221q0 103 64.5 170t163.5 67q57 0 102 -24v17h74v-691h-74v262q-58 -29 -116 -29q-90 0 -152 66.5t-62 161.5zM114 223q0 -70 45.5 -117t112.5 -47q47 0 94 24v286q-45 23 -87 23q-70 0 -117.5 -49t-47.5 -120z" />
<glyph unicode="r" horiz-adv-x="381" d="M63 0v451h75l-1 -113l19 25q37 53 61 71q30 24 68 24q49 0 94 -51l-42 -71q-37 45 -75 45t-75 -44q-48 -61 -48 -114v-223h-76z" />
<glyph unicode="s" horiz-adv-x="361" d="M43 36v78q59 -59 129 -59q37 0 60 18t23 47q0 28 -19 45q-15 15 -70 41q-56 27 -75 44q-41 35 -41 84q0 52 44 88t107 36q57 0 115 -30v-71q-50 41 -109 41q-35 0 -57 -17t-22 -44q0 -21 18 -37.5t68 -41.5q45 -22 60 -32t30 -26q29 -31 29 -77q0 -56 -42.5 -93 t-106.5 -37q-66 0 -141 43z" />
<glyph unicode="t" horiz-adv-x="305" d="M111 42q-18 27 -18 89v262h-81l155 192v-137h128v-55h-128v-251q0 -45 14.5 -64t49.5 -19q39 0 75 23v-66q-52 -23 -95 -23q-68 0 -100 49z" />
<glyph unicode="u" horiz-adv-x="492" d="M63 172v279h74v-255q0 -59 16 -87q26 -46 82 -46q36 0 69.5 20.5t50.5 52.5v315h74v-451h-74l2 79q-56 -86 -143 -86q-70 0 -110.5 48t-40.5 131z" />
<glyph unicode="v" horiz-adv-x="439" d="M190 0l-183 451h74l139 -343l142 343h70l-189 -451h-53z" />
<glyph unicode="w" horiz-adv-x="700" d="M185 0l-178 451h76l128 -327l107 327h61l111 -327l131 327h72l-178 -451h-42l-128 353l-118 -353h-42z" />
<glyph unicode="x" horiz-adv-x="494" d="M7 0l199 232l-188 219h85l146 -169l146 169h83l-189 -219l199 -232h-90l-153 181l-153 -181h-85z" />
<glyph unicode="y" horiz-adv-x="447" d="M180 95l-170 356h79l132 -275l146 275h73l-357 -691h-76z" />
<glyph unicode="z" horiz-adv-x="461" d="M19 0l288 388h-266v63h400l-291 -388h282v-63h-413z" />
<glyph unicode="{" horiz-adv-x="270" d="M80 -99v205q0 41 -13 61.5t-44 28.5v46q31 8 44 28t13 58v218q0 68 32.5 98.5t106.5 30.5h21v-64q-47 -2 -63.5 -16.5t-16.5 -55.5v-214q0 -45 -10 -68.5t-36 -39.5q26 -17 36 -41t10 -69v-208q0 -44 16 -59t64 -16v-64h-23q-74 0 -105.5 32.5t-31.5 108.5z" />
<glyph unicode="|" horiz-adv-x="500" d="M213 -167v834h75v-834h-75z" />
<glyph unicode="}" horiz-adv-x="270" d="M109 -101v208q0 45 10 69t36 41q-26 16 -36 39.5t-10 68.5v214q0 41 -16 55.5t-63 16.5v64h21q73 0 105.5 -30.5t32.5 -98.5v-218q0 -38 13.5 -58t44.5 -28v-46q-31 -8 -44.5 -28.5t-13.5 -61.5v-205q0 -76 -31.5 -108.5t-105.5 -32.5h-22v64q47 1 63 16t16 59z" />
<glyph unicode="~" horiz-adv-x="667" d="M137 582l-44 28q31 64 62 90.5t75 26.5q37 0 112 -34q69 -32 97 -32t47.5 14.5t42.5 52.5l45 -26q-27 -55 -56 -79q-40 -34 -88 -34q-34 0 -141 48q-37 18 -64 18q-26 0 -46 -16.5t-42 -56.5z" />
<glyph unicode="&#xa1;" horiz-adv-x="288" d="M145 329q-27 0 -46 19t-19 46q0 26 19 45t46 19q26 0 45 -19t19 -46q0 -26 -19 -45t-45 -19zM84 -78q0 82 45 346h31q44 -263 44 -346q0 -77 -15.5 -119.5t-44.5 -42.5t-44.5 42.5t-15.5 119.5z" />
<glyph unicode="&#xa2;" d="M289 20v92q-85 11 -139.5 74t-54.5 151q0 59 25 111t68 83q39 30 101 38v86h38v-86h3q47 0 96 -22v-65q-47 25 -99 25v-334q51 1 111 27v-68q-20 -9 -55 -15.5t-56 -5.5v-91h-38zM289 177v325q-57 -13 -88.5 -54.5t-31.5 -104.5t32.5 -108t87.5 -58z" />
<glyph unicode="&#xa3;" d="M54 -7l81 304h-81v60h98q50 167 99 231q66 86 166 86q16 0 36 -5l31 -79q-39 13 -60 13q-73 0 -129 -89q-28 -43 -65 -157h98v-60h-116l-59 -229q26 4 29 4q38 6 57 6q29 0 109 -14q40 -6 55 -6q39 0 82 29l-5 -73q-50 -21 -91 -21q-15 0 -81 10q-68 9 -106 9 q-50 0 -148 -19z" />
<glyph unicode="&#xa4;" horiz-adv-x="669" d="M100 70l-39 39l91 92q-49 67 -49 142q0 65 50 139l-94 93l39 39l94 -93q42 28 73 39t69 11t68.5 -11t71.5 -39l94 93l39 -39l-92 -92q50 -70 50 -142q0 -67 -49 -139l93 -93l-39 -39l-93 92q-65 -50 -139 -50q-69 0 -146 50zM335 175q68 0 117 49t49 118t-48.5 118.5 t-116.5 49.5q-70 0 -119 -49t-49 -119q0 -69 49 -118t118 -49z" />
<glyph unicode="&#xa5;" d="M227 0v256h-143v60h134l-47 90h-124v60h92l-105 201h81l152 -297l150 297h81l-104 -201h91v-60h-123l-47 -90h134v-60h-143v-256h-79z" />
<glyph unicode="&#xa6;" horiz-adv-x="500" d="M213 333v334h75v-334h-75zM213 153h75v-320h-75v320z" />
<glyph unicode="&#xa7;" horiz-adv-x="507" d="M100 -88h66v-8q0 -34 16 -53q28 -33 75 -33q40 0 67 24.5t27 61.5q0 32 -29 65t-120 106q-54 43 -73.5 61t-33.5 37q-22 31 -22 70q0 40 21 70t79 71q-46 46 -60.5 72t-14.5 63q0 64 46.5 109.5t111.5 45.5q63 0 107 -40.5t44 -98.5q0 -9 -1 -17h-64q0 51 -12 68 q-23 33 -72 33q-39 0 -66.5 -24.5t-27.5 -59.5q0 -27 12 -46.5t50 -54t136 -114.5q44 -36 61 -63t17 -61q0 -81 -101 -142q42 -34 60 -66t18 -74q0 -66 -47 -111t-117 -45q-67 0 -110 39.5t-43 100.5v14zM182 187q62 -55 117 -97q73 47 73 99q0 17 -11.5 32.5t-46.5 45.5 q-96 80 -99 82q-33 -20 -53.5 -46t-20.5 -49q0 -18 8.5 -32t32.5 -35z" />
<glyph unicode="&#xa8;" horiz-adv-x="500" d="M333 523q-21 0 -35 14.5t-14 35.5q0 20 14.5 34t34.5 14t34.5 -14.5t14.5 -34.5t-14.5 -34.5t-34.5 -14.5zM167 523q-20 0 -34.5 14.5t-14.5 35.5q0 20 14.5 34t34.5 14t34.5 -14.5t14.5 -34.5t-14.5 -34.5t-34.5 -14.5z" />
<glyph unicode="&#xa9;" horiz-adv-x="782" d="M47 333q0 145 101.5 245t247.5 100q139 0 239.5 -101.5t100.5 -242.5q0 -143 -100.5 -244t-243.5 -101q-142 0 -243.5 101t-101.5 243zM99 333q0 -122 86 -208.5t207 -86.5t206.5 87t85.5 209q0 121 -85 208t-203 87q-125 0 -211 -86t-86 -210zM181 329q0 88 63.5 148.5 t156.5 60.5q66 0 135 -34v-57q-74 40 -128 40q-71 0 -119 -45t-48 -112q0 -64 46.5 -107t114.5 -43q65 0 134 39v-54q-64 -36 -138 -36q-94 0 -155.5 56.5t-61.5 143.5z" />
<glyph unicode="&#xaa;" horiz-adv-x="355" d="M146 396q-34 0 -56 20t-22 51q0 53 61 77q26 10 86 18v19q0 50 -45 50q-44 0 -89 -44v50q47 38 95 38q41 0 64 -23t23 -64v-133q0 -15 7 -15q8 0 18 9q4 4 13 10l-7 -41q-28 -21 -51 -21q-21 0 -24 26q-38 -27 -73 -27zM157 431q28 0 57 21v80q-39 -3 -57 -11 q-19 -8 -31 -22t-12 -29q0 -17 12 -28t31 -11zM41 285v57h273v-57h-273z" />
<glyph unicode="&#xab;" horiz-adv-x="494" d="M217 236l174 211l63 -12l-169 -199l168 -207l-63 -11zM205 18l-172 218l174 211l61 -12l-167 -199l168 -207z" />
<glyph unicode="&#xac;" horiz-adv-x="500" d="M33 197v70h433v-267h-75v197h-358z" />
<glyph unicode="&#xad;" horiz-adv-x="259" d="M0 191v71h259v-71h-259z" />
<glyph unicode="&#xae;" horiz-adv-x="782" d="M47 333q0 145 101.5 245t247.5 100q139 0 239.5 -101.5t100.5 -242.5q0 -143 -100.5 -244t-243.5 -101q-142 0 -243.5 101t-101.5 243zM99 333q0 -122 86 -208.5t207 -86.5t206.5 87t85.5 209q0 121 -85 208t-203 87q-125 0 -211 -86t-86 -210zM239 133v400h131 q57 0 93 -29.5t36 -75.5q0 -34 -18.5 -59.5t-49.5 -36.5q17 -14 22.5 -21t22.5 -32l95 -146h-65l-68 104q-2 3 -9 15q-22 39 -40 53t-44 14h-47v-186h-59zM298 357h44q45 0 67 15q30 21 30 56q0 64 -82 64h-59v-135z" />
<glyph unicode="&#xaf;" horiz-adv-x="500" d="M116 536v57h269v-57h-269z" />
<glyph unicode="&#xb0;" horiz-adv-x="400" d="M200 387q-61 0 -104 43t-43 105q0 59 43.5 102t103.5 43t103 -43t43 -103q0 -61 -43 -104t-103 -43zM200 431q42 0 72 30t30 73q0 42 -30 72t-72 30t-72.5 -30t-30.5 -71q0 -43 30 -73.5t73 -30.5z" />
<glyph unicode="&#xb1;" d="M233 104v200h-200v66h200v200h66v-200h201v-66h-201v-200h-66zM33 -16v66h467v-66h-467z" />
<glyph unicode="&#xb2;" horiz-adv-x="347" d="M24 267v12q57 46 130 136q61 75 61 131q0 32 -24 53t-61 21q-43 0 -95 -48v62q56 37 109 37q54 0 90.5 -34.5t36.5 -85.5q0 -97 -144 -236h179v-48h-282z" />
<glyph unicode="&#xb3;" horiz-adv-x="347" d="M61 286v57q42 -33 88 -33q36 0 59 19.5t23 49.5q0 32 -26.5 51t-70.5 19q-21 0 -49 -8v58q30 -6 54 -6q40 0 64.5 18.5t24.5 47.5t-24 48t-60 19q-41 0 -84 -33v58q49 20 88 20q60 0 98 -30.5t38 -78.5q0 -30 -17 -55t-45 -37q31 -10 48.5 -35.5t17.5 -58.5 q0 -49 -37.5 -81t-93.5 -32q-44 0 -96 23z" />
<glyph unicode="&#xb4;" horiz-adv-x="500" d="M212 507l96 140h89l-132 -140h-53z" />
<glyph unicode="&#xb5;" horiz-adv-x="492" d="M137 47v-263h-74v667h74v-265q0 -59 25.5 -91t72.5 -32q36 0 69.5 20.5t50.5 52.5v315h74v-451h-74l2 79q-56 -86 -136 -86q-59 0 -84 54z" />
<glyph unicode="&#xb6;" d="M263 -240v553q-51 0 -86 12q-54 19 -84.5 62t-30.5 101q0 49 22.5 89.5t61.5 62.5q48 27 132 27h264v-60h-52v-847h-77v847h-73v-847h-77z" />
<glyph unicode="&#xb7;" horiz-adv-x="248" d="M124 180q-26 0 -45 19t-19 46q0 26 19 45t45 19q27 0 46 -19t19 -46q0 -26 -19 -45t-46 -19z" />
<glyph unicode="&#xb8;" horiz-adv-x="500" d="M182 -78l35 78h48l-25 -50q4 1 9 1q26 0 45 -17.5t19 -40.5q0 -32 -28.5 -52t-72.5 -20q-38 0 -75 15l13 34q33 -15 59 -15q24 0 39.5 10t15.5 26q0 13 -12 22t-28 9q-14 0 -31 -8z" />
<glyph unicode="&#xb9;" horiz-adv-x="347" d="M173 267v337l-89 -72l-17 41l119 95h44v-401h-57z" />
<glyph unicode="&#xba;" horiz-adv-x="355" d="M178 396q-57 0 -97 41t-40 100q0 57 40.5 97.5t96.5 40.5q57 0 97 -40.5t40 -98.5t-40 -99t-97 -41zM178 440q35 0 60.5 28.5t25.5 67.5q0 40 -25 67.5t-61 27.5q-35 0 -60.5 -27.5t-25.5 -65.5q0 -41 25 -69.5t61 -28.5zM42 285v57h272v-57h-272z" />
<glyph unicode="&#xbb;" horiz-adv-x="494" d="M225 29l168 207l-167 199l61 12l174 -211l-173 -218zM41 29l168 207l-169 199l63 12l174 -211l-173 -218z" />
<glyph unicode="&#xbc;" horiz-adv-x="833" d="M179 15l440 659l35 -21l-439 -660zM174 267v341l-87 -73l-16 38l113 94h42v-400h-52zM513 140v25l205 235h27v-220h61v-40h-61v-140h-49v140h-183zM578 180h118v139z" />
<glyph unicode="&#xbd;" horiz-adv-x="833" d="M179 15l440 659l35 -21l-439 -660zM174 267v341l-87 -73l-16 38l113 94h42v-400h-52zM516 0v11q83 74 134 148t51 121q0 32 -24 54t-59 22q-44 0 -92 -47v59q54 36 105 36q52 0 87 -34.5t35 -85.5q0 -96 -142 -238h176v-46h-271z" />
<glyph unicode="&#xbe;" horiz-adv-x="833" d="M179 15l440 659l36 -21l-440 -660zM66 286v54q40 -32 83 -32q35 0 58 20t23 50q0 33 -25.5 52.5t-69.5 19.5q-17 0 -46 -7v55q27 -6 51 -6q39 0 63 18.5t24 49.5q0 29 -24 48.5t-58 19.5q-41 0 -80 -31v54q47 20 84 20q57 0 93.5 -30.5t36.5 -77.5q0 -31 -16.5 -56.5 t-45.5 -36.5q31 -11 48.5 -36t17.5 -59q0 -48 -36 -80t-90 -32q-44 0 -91 23zM513 140v25l206 235h27v-220h60v-40h-60v-140h-49v140h-184zM579 180h118v139z" />
<glyph unicode="&#xbf;" horiz-adv-x="316" d="M171 329q-27 0 -46 19t-19 46q0 26 19 45t46 19q26 0 45 -19t19 -46q0 -26 -19 -45t-45 -19zM66 6q12 24 56 89q39 57 39 97q0 32 -22 61l30 16q41 -39 41 -96q0 -43 -38 -105q-39 -65 -48.5 -89t-9.5 -54q0 -40 19.5 -63.5t52.5 -23.5q49 0 77 47l13 -6l-36 -104 q-35 -15 -72 -15q-58 0 -93 38t-35 102q0 51 26 106z" />
<glyph unicode="&#xc0;" horiz-adv-x="657" d="M310 713l-158 130h110l103 -130h-55zM5 0l288 667h68l291 -667h-93l-86 210h-292l-85 -210h-91zM208 269h239l-119 279z" />
<glyph unicode="&#xc1;" horiz-adv-x="657" d="M303 713l104 130h109l-158 -130h-55zM5 0l288 667h68l291 -667h-93l-86 210h-292l-85 -210h-91zM208 269h239l-119 279z" />
<glyph unicode="&#xc2;" horiz-adv-x="657" d="M167 713l120 130h89l120 -130h-52l-113 70l-112 -70h-52zM5 0l288 667h68l291 -667h-93l-86 210h-292l-85 -210h-91zM208 269h239l-119 279z" />
<glyph unicode="&#xc3;" horiz-adv-x="657" d="M169 726q5 47 26.5 74.5t53.5 27.5q21 0 67 -16q33 -12 65 -22q20 -7 36 -7q26 0 38 40h43q-16 -102 -85 -102q-38 0 -126 34q-26 10 -42 10q-22 0 -32 -39h-44zM5 0l288 667h68l291 -667h-93l-86 210h-292l-85 -210h-91zM208 269h239l-119 279z" />
<glyph unicode="&#xc4;" horiz-adv-x="657" d="M437 722q-23 0 -38.5 16t-15.5 39q0 22 16 37.5t38 15.5t38 -16t16 -38t-16 -38t-38 -16zM224 722q-23 0 -38.5 16t-15.5 39q0 21 16 37t38 16t38 -16t16 -38t-16 -38t-38 -16zM5 0l288 667h68l291 -667h-93l-86 210h-292l-85 -210h-91zM208 269h239l-119 279z" />
<glyph unicode="&#xc5;" horiz-adv-x="657" d="M332 703q-37 0 -63 25.5t-26 61.5q0 34 26.5 59.5t61.5 25.5q37 0 63 -25.5t26 -60.5t-26 -60.5t-62 -25.5zM332 751q16 0 27 11t11 26q0 16 -11 27t-27 11t-27.5 -11t-11.5 -26q0 -16 11.5 -27t27.5 -11zM5 0l288 667h68l291 -667h-93l-86 210h-292l-85 -210h-91z M208 269h239l-119 279z" />
<glyph unicode="&#xc6;" horiz-adv-x="861" d="M4 0l389 667h421v-67h-289v-231h281v-67h-281v-235h298v-67h-382v302h-172l-174 -302h-91zM305 369h136v237z" />
<glyph unicode="&#xc7;" horiz-adv-x="641" d="M207 138q74 -71 185 -71q106 0 211 63v-79q-101 -58 -216 -58l-22 -47q34 1 55.5 -17t21.5 -46q0 -34 -30 -56.5t-77 -22.5q-39 0 -80 17l14 37q34 -17 63 -17q25 0 41.5 11.5t16.5 28.5q0 14 -12.5 24t-30.5 10q-15 0 -33 -9l-11 9l36 80q-56 9 -88 21q-98 38 -154 121 t-56 189q0 147 101 247.5t249 100.5q105 0 212 -54v-84q-111 64 -202 64q-122 0 -199 -80q-35 -36 -55.5 -88t-20.5 -104q0 -111 81 -190z" />
<glyph unicode="&#xc8;" horiz-adv-x="491" d="M270 713l-158 130h110l103 -130h-55zM76 0v667h369v-67h-285v-229h280v-67h-280v-237h293v-67h-377z" />
<glyph unicode="&#xc9;" horiz-adv-x="491" d="M225 713l104 130h109l-158 -130h-55zM76 0v667h369v-67h-285v-229h280v-67h-280v-237h293v-67h-377z" />
<glyph unicode="&#xca;" horiz-adv-x="491" d="M100 713l120 130h89l120 -130h-52l-113 70l-112 -70h-52zM76 0v667h369v-67h-285v-229h280v-67h-280v-237h293v-67h-377z" />
<glyph unicode="&#xcb;" horiz-adv-x="491" d="M370 722q-23 0 -38.5 16t-15.5 39q0 22 16 37.5t38 15.5t38 -16t16 -38t-16 -38t-38 -16zM157 722q-23 0 -38.5 16t-15.5 39q0 21 16 37t38 16t38 -16t16 -38t-15.5 -38t-38.5 -16zM76 0v667h369v-67h-285v-229h280v-67h-280v-237h293v-67h-377z" />
<glyph unicode="&#xcc;" horiz-adv-x="235" d="M98 713l-135 130h103l87 -130h-55zM77 0v667h83v-667h-83z" />
<glyph unicode="&#xcd;" horiz-adv-x="235" d="M89 713l87 130h103l-135 -130h-55zM76 0v667h83v-667h-83z" />
<glyph unicode="&#xce;" horiz-adv-x="235" d="M-20 713l97 130h88l97 -130h-49l-92 72l-92 -72h-49zM76 0v667h83v-667h-83z" />
<glyph unicode="&#xcf;" horiz-adv-x="235" d="M201 722q-23 0 -38.5 16t-15.5 39q0 22 16 37.5t38 15.5t38 -16t16 -38t-16 -38t-38 -16zM46 722q-23 0 -38.5 16t-15.5 39q0 21 16 37t38 16t38 -16t16 -38t-16 -38t-38 -16zM76 0v667h83v-667h-83z" />
<glyph unicode="&#xd0;" horiz-adv-x="704" d="M76 0v305h-66v67h66v295h229q72 0 119.5 -11.5t90.5 -39.5q67 -43 107 -120t40 -163q0 -90 -45.5 -168.5t-123.5 -121.5q-76 -43 -206 -43h-211zM160 67h103q128 0 193 41q121 77 121 223q0 77 -36.5 141.5t-98.5 98.5q-54 29 -163 29h-119v-228h186v-67h-186v-238z" />
<glyph unicode="&#xd1;" horiz-adv-x="754" d="M229 726q5 47 26.5 74.5t53.5 27.5q21 0 67 -16q33 -12 65 -22q20 -7 36 -7q26 0 38 40h43q-16 -102 -85 -102q-38 0 -126 34q-26 10 -42 10q-22 0 -32 -39h-44zM76 0v667h67l451 -533v533h84v-667h-71l-447 525v-525h-84z" />
<glyph unicode="&#xd2;" horiz-adv-x="755" d="M373 713l-158 130h110l103 -130h-55zM41 338q0 139 98.5 237.5t238.5 98.5q141 0 238.5 -98.5t97.5 -241.5q0 -142 -98 -241.5t-238 -99.5q-143 0 -240 99.5t-97 245.5zM126 336q0 -115 72 -192t180 -77q107 0 179 76.5t72 189.5q0 112 -72.5 189.5t-178.5 77.5 q-105 0 -178.5 -77t-73.5 -187z" />
<glyph unicode="&#xd3;" horiz-adv-x="755" d="M348 713l104 130h109l-158 -130h-55zM41 338q0 139 98.5 237.5t238.5 98.5q141 0 238.5 -98.5t97.5 -241.5q0 -142 -98 -241.5t-238 -99.5q-143 0 -240 99.5t-97 245.5zM126 336q0 -115 72 -192t180 -77q107 0 179 76.5t72 189.5q0 112 -72.5 189.5t-178.5 77.5 q-105 0 -178.5 -77t-73.5 -187z" />
<glyph unicode="&#xd4;" horiz-adv-x="755" d="M216 713l120 130h89l120 -130h-52l-113 70l-112 -70h-52zM41 338q0 139 98.5 237.5t238.5 98.5q141 0 238.5 -98.5t97.5 -241.5q0 -142 -98 -241.5t-238 -99.5q-143 0 -240 99.5t-97 245.5zM126 336q0 -115 72 -192t180 -77q107 0 179 76.5t72 189.5q0 112 -72.5 189.5 t-178.5 77.5q-105 0 -178.5 -77t-73.5 -187z" />
<glyph unicode="&#xd5;" horiz-adv-x="755" d="M229 726q5 47 26.5 74.5t53.5 27.5q21 0 67 -16q33 -12 65 -22q20 -7 36 -7q26 0 38 40h43q-16 -102 -85 -102q-38 0 -126 34q-26 10 -42 10q-22 0 -32 -39h-44zM41 338q0 139 98.5 237.5t238.5 98.5q141 0 238.5 -98.5t97.5 -241.5q0 -142 -98 -241.5t-238 -99.5 q-143 0 -240 99.5t-97 245.5zM126 336q0 -115 72 -192t180 -77q107 0 179 76.5t72 189.5q0 112 -72.5 189.5t-178.5 77.5q-105 0 -178.5 -77t-73.5 -187z" />
<glyph unicode="&#xd6;" horiz-adv-x="755" d="M490 722q-23 0 -38.5 16t-15.5 39q0 22 16 37.5t38 15.5t38 -16t16 -38t-16 -38t-38 -16zM277 722q-23 0 -38.5 16t-15.5 39q0 21 16 37t38 16t38 -16t16 -38t-15.5 -38t-38.5 -16zM41 338q0 139 98.5 237.5t238.5 98.5q141 0 238.5 -98.5t97.5 -241.5q0 -142 -98 -241.5 t-238 -99.5q-143 0 -240 99.5t-97 245.5zM126 336q0 -115 72 -192t180 -77q107 0 179 76.5t72 189.5q0 112 -72.5 189.5t-178.5 77.5q-105 0 -178.5 -77t-73.5 -187z" />
<glyph unicode="&#xd7;" d="M114 137l-47 47l153 153l-159 159l47 46l159 -158l152 152l47 -47l-153 -152l159 -159l-47 -47l-159 159z" />
<glyph unicode="&#xd8;" horiz-adv-x="755" d="M55 31l69 77q-83 101 -83 226q0 142 98 241t238 99q105 0 203 -66l70 74l49 -45l-71 -74q86 -99 86 -230q0 -142 -98 -241t-238 -99q-119 0 -207 70l-69 -77zM178 168l349 381q-69 51 -150 51q-105 0 -178 -77.5t-73 -188.5q0 -97 52 -166zM224 121q70 -54 154 -54 q107 0 179 76.5t72 188.5q0 97 -56 169z" />
<glyph unicode="&#xd9;" horiz-adv-x="716" d="M366 713l-158 130h110l103 -130h-55zM124 108q-48 71 -48 196v363h84v-341q0 -71 6.5 -106.5t25.5 -66.5q25 -40 70 -63t97 -23q56 0 101 26.5t70 73.5q26 49 26 169v331h84v-377q0 -130 -63 -203q-82 -94 -217 -94q-74 0 -136.5 30.5t-99.5 84.5z" />
<glyph unicode="&#xda;" horiz-adv-x="716" d="M321 713l104 130h109l-158 -130h-55zM124 108q-48 71 -48 196v363h84v-341q0 -71 6.5 -106.5t25.5 -66.5q25 -40 70 -63t97 -23q56 0 101 26.5t70 73.5q26 49 26 169v331h84v-377q0 -130 -63 -203q-82 -94 -217 -94q-74 0 -136.5 30.5t-99.5 84.5z" />
<glyph unicode="&#xdb;" horiz-adv-x="716" d="M200 713l120 130h89l120 -130h-52l-113 70l-112 -70h-52zM124 108q-48 71 -48 196v363h84v-341q0 -71 6.5 -106.5t25.5 -66.5q25 -40 70 -63t97 -23q56 0 101 26.5t70 73.5q26 49 26 169v331h84v-377q0 -130 -63 -203q-82 -94 -217 -94q-74 0 -136.5 30.5t-99.5 84.5z " />
<glyph unicode="&#xdc;" horiz-adv-x="716" d="M471 722q-23 0 -38.5 16t-15.5 39q0 22 16 37.5t38 15.5t38 -16t16 -38t-16 -38t-38 -16zM258 722q-23 0 -38.5 16t-15.5 39q0 21 16 37t38 16t38 -16t16 -38t-16 -38t-38 -16zM124 108q-48 71 -48 196v363h84v-341q0 -71 6.5 -106.5t25.5 -66.5q25 -40 70 -63t97 -23 q56 0 101 26.5t70 73.5q26 49 26 169v331h84v-377q0 -130 -63 -203q-82 -94 -217 -94q-74 0 -136.5 30.5t-99.5 84.5z" />
<glyph unicode="&#xdd;" horiz-adv-x="589" d="M264 713l104 130h109l-158 -130h-55zM252 0v350l-247 317h107l182 -245l181 245h108l-247 -317v-350h-84z" />
<glyph unicode="&#xde;" horiz-adv-x="523" d="M76 0v667h84v-107h104q95 0 150 -33q84 -51 84 -152q0 -105 -95 -158q-42 -23 -137 -23h-106v-194h-84zM160 253h83q88 0 115 16q25 15 40 43.5t15 63.5q0 69 -52 105q-31 20 -101 20h-100v-248z" />
<glyph unicode="&#xdf;" horiz-adv-x="504" d="M63 0v457q0 88 30 135q52 83 167 83q81 0 131 -45t50 -117q0 -67 -40 -107q-18 -19 -58 -35q61 -12 93.5 -56.5t32.5 -115.5q0 -92 -50 -148.5t-131 -56.5q-38 0 -75 15v69q33 -18 66 -18q49 0 80.5 39t31.5 99q0 67 -37.5 105t-103.5 38q-13 0 -23 -1v59h17q55 0 87 29 t32 79t-30 80.5t-79 30.5q-78 0 -105 -71q-12 -31 -12 -100v-447h-74z" />
<glyph unicode="&#xe0;" horiz-adv-x="435" d="M216 507l-133 140h90l95 -140h-52zM43 109q0 42 26.5 75.5t74.5 51.5q43 16 150 30v37q0 46 -17 63q-23 26 -64 26q-74 0 -147 -69v73q81 62 156 62q80 0 120 -53q24 -32 24 -91v-225q0 -19 3.5 -25t13.5 -6q14 0 34 17q1 1 11 9l-9 -56q-46 -34 -82 -34q-19 0 -27.5 11 t-10.5 37q-65 -49 -127 -49q-57 0 -93 32.5t-36 83.5zM113 113q0 -31 22 -50.5t56 -19.5q48 0 101 38v143q-70 -6 -103 -19q-34 -13 -55 -38.5t-21 -53.5z" />
<glyph unicode="&#xe1;" horiz-adv-x="435" d="M184 507l96 140h89l-132 -140h-53zM43 109q0 42 26.5 75.5t74.5 51.5q43 16 150 30v37q0 46 -17 63q-23 26 -64 26q-74 0 -147 -69v73q81 62 156 62q80 0 120 -53q24 -32 24 -91v-225q0 -19 3.5 -25t13.5 -6q14 0 34 17q1 1 11 9l-9 -56q-46 -34 -82 -34q-19 0 -27.5 11 t-10.5 37q-65 -49 -127 -49q-57 0 -93 32.5t-36 83.5zM113 113q0 -31 22 -50.5t56 -19.5q48 0 101 38v143q-70 -6 -103 -19q-34 -13 -55 -38.5t-21 -53.5z" />
<glyph unicode="&#xe2;" horiz-adv-x="435" d="M67 507l106 140h84l106 -140h-50l-98 86l-98 -86h-50zM43 109q0 42 26.5 75.5t74.5 51.5q43 16 150 30v37q0 46 -17 63q-23 26 -64 26q-74 0 -147 -69v73q81 62 156 62q80 0 120 -53q24 -32 24 -91v-225q0 -19 3.5 -25t13.5 -6q14 0 34 17q1 1 11 9l-9 -56 q-46 -34 -82 -34q-19 0 -27.5 11t-10.5 37q-65 -49 -127 -49q-57 0 -93 32.5t-36 83.5zM113 113q0 -31 22 -50.5t56 -19.5q48 0 101 38v143q-70 -6 -103 -19q-34 -13 -55 -38.5t-21 -53.5z" />
<glyph unicode="&#xe3;" horiz-adv-x="435" d="M79 527q4 44 23.5 70.5t47.5 26.5q24 0 77 -21q54 -22 71 -22q25 0 35 38h44q-17 -97 -75 -97q-32 0 -112 34q-21 9 -37 9q-21 0 -31 -38h-43zM43 109q0 42 26.5 75.5t74.5 51.5q43 16 150 30v37q0 46 -17 63q-23 26 -64 26q-74 0 -147 -69v73q81 62 156 62q80 0 120 -53 q24 -32 24 -91v-225q0 -19 3.5 -25t13.5 -6q14 0 34 17q1 1 11 9l-9 -56q-46 -34 -82 -34q-19 0 -27.5 11t-10.5 37q-65 -49 -127 -49q-57 0 -93 32.5t-36 83.5zM113 113q0 -31 22 -50.5t56 -19.5q48 0 101 38v143q-70 -6 -103 -19q-34 -13 -55 -38.5t-21 -53.5z" />
<glyph unicode="&#xe4;" horiz-adv-x="435" d="M297 523q-21 0 -35 14.5t-14 35.5q0 20 14.5 34t34.5 14t34.5 -14.5t14.5 -34.5t-14.5 -34.5t-34.5 -14.5zM134 523q-20 0 -34.5 14.5t-14.5 35.5q0 20 14.5 34t34.5 14t34.5 -14.5t14.5 -34.5t-14.5 -34.5t-34.5 -14.5zM43 109q0 42 27 75.5t74 51.5q42 16 150 31v36 q0 46 -17 63q-23 26 -64 26q-74 0 -147 -69v73q81 62 156 62q81 0 120 -53q24 -31 24 -91v-225q0 -18 3.5 -24t13.5 -6q17 0 34 16l11 10l-9 -57q-46 -34 -82 -34q-19 0 -27.5 11t-10.5 37q-65 -49 -127 -49q-57 0 -93 32.5t-36 83.5zM113 114q0 -31 21.5 -51t56.5 -20 q48 0 101 38v143q-66 -4 -103 -19q-34 -13 -55 -38.5t-21 -52.5z" />
<glyph unicode="&#xe5;" horiz-adv-x="435" d="M230 497q-37 0 -63 25.5t-26 61.5q0 34 26.5 59.5t61.5 25.5q37 0 63 -25.5t26 -60.5t-26 -60.5t-62 -25.5zM230 545q16 0 27 11t11 26q0 16 -11 27t-27 11t-27.5 -11t-11.5 -26q0 -16 11.5 -27t27.5 -11zM43 109q0 42 26.5 75.5t74.5 51.5q43 16 150 30v37q0 46 -17 63 q-23 26 -64 26q-74 0 -147 -69v73q81 62 156 62q80 0 120 -53q24 -32 24 -91v-225q0 -19 3.5 -25t13.5 -6q14 0 34 17q1 1 11 9l-9 -56q-46 -34 -82 -34q-19 0 -27.5 11t-10.5 37q-65 -49 -127 -49q-57 0 -93 32.5t-36 83.5zM113 113q0 -31 22 -50.5t56 -19.5q48 0 101 38 v143q-70 -6 -103 -19q-34 -13 -55 -38.5t-21 -53.5z" />
<glyph unicode="&#xe6;" horiz-adv-x="657" d="M44 106q0 93 151 138l81 24v39q0 42 -14 59q-23 26 -62 26q-61 0 -134 -70v76q84 60 153 60q77 0 109 -59q58 59 126 59q59 0 102 -33.5t59 -93.5q10 -37 10 -95h-277q1 -72 14 -108q11 -31 42 -50t71 -19q82 0 150 56v-72q-88 -50 -160 -50q-74 0 -145 60 q-78 -60 -151 -60q-54 0 -89.5 32t-35.5 81zM349 282h208q-1 55 -28.5 86.5t-73.5 31.5q-61 0 -89 -49q-14 -26 -17 -69zM114 108q0 -28 22.5 -46.5t56.5 -18.5q42 0 84 32q-1 23 -1 58v90l-40 -12q-122 -37 -122 -103z" />
<glyph unicode="&#xe7;" horiz-adv-x="404" d="M141 26q-49 30 -77 85t-28 119q0 99 64 163.5t162 64.5q52 0 110 -23v-69q-55 26 -100 26q-69 0 -113.5 -46.5t-44.5 -118.5q0 -73 44.5 -120.5t112.5 -47.5q52 0 109 28v-69q-56 -26 -122 -24l-21 -43h9q26 0 45 -17.5t19 -40.5q0 -32 -28.5 -52t-72.5 -20q-39 0 -75 16 l13 33q33 -15 59 -15q24 0 39.5 10t15.5 26q0 13 -12 22t-29 9q-14 0 -31 -8l-11 9l35 76q-42 8 -72 27z" />
<glyph unicode="&#xe8;" horiz-adv-x="462" d="M243 507l-133 140h90l95 -140h-52zM36 230q0 97 58 162.5t144 65.5q54 0 100 -27.5t69 -73.5q22 -43 22 -121h-318q2 -83 42.5 -130t110.5 -47q74 0 156 48v-63q-81 -51 -169 -51q-93 0 -154 67t-61 170zM117 282h241q-4 55 -34.5 86.5t-80.5 31.5q-48 0 -83.5 -33.5 t-42.5 -84.5z" />
<glyph unicode="&#xe9;" horiz-adv-x="462" d="M215 507l96 140h89l-132 -140h-53zM36 230q0 97 58 162.5t144 65.5q54 0 100 -27.5t69 -73.5q22 -43 22 -121h-318q2 -83 42.5 -130t110.5 -47q74 0 156 48v-63q-81 -51 -169 -51q-93 0 -154 67t-61 170zM117 282h241q-4 55 -34.5 86.5t-80.5 31.5q-48 0 -83.5 -33.5 t-42.5 -84.5z" />
<glyph unicode="&#xea;" horiz-adv-x="462" d="M98 507l106 140h84l106 -140h-50l-98 86l-98 -86h-50zM36 230q0 97 58 162.5t144 65.5q54 0 100 -27.5t69 -73.5q22 -43 22 -121h-318q2 -83 42.5 -130t110.5 -47q74 0 156 48v-63q-81 -51 -169 -51q-93 0 -154 67t-61 170zM117 282h241q-4 55 -34.5 86.5t-80.5 31.5 q-48 0 -83.5 -33.5t-42.5 -84.5z" />
<glyph unicode="&#xeb;" horiz-adv-x="462" d="M329 523q-21 0 -35 14.5t-14 35.5q0 20 14.5 34t34.5 14t34.5 -14.5t14.5 -34.5t-14.5 -34.5t-34.5 -14.5zM163 523q-20 0 -34.5 14.5t-14.5 35.5q0 20 14.5 34t34.5 14t34.5 -14.5t14.5 -34.5t-14.5 -34.5t-34.5 -14.5zM36 230q0 97 58 162.5t144 65.5q54 0 100 -27.5 t69 -73.5q22 -43 22 -121h-318q2 -83 42.5 -130t110.5 -47q74 0 156 48v-63q-81 -51 -169 -51q-93 0 -154 67t-61 170zM117 282h241q-4 55 -34.5 86.5t-80.5 31.5q-48 0 -83.5 -33.5t-42.5 -84.5z" />
<glyph unicode="&#xec;" horiz-adv-x="200" d="M81 507l-110 140h84l79 -140h-53zM63 0v451h74v-451h-74z" />
<glyph unicode="&#xed;" horiz-adv-x="200" d="M73 507l79 140h84l-110 -140h-53zM63 0v451h74v-451h-74z" />
<glyph unicode="&#xee;" horiz-adv-x="200" d="M-22 507l82 140h85l83 -140h-47l-78 87l-78 -87h-47zM62 0v451h74v-451h-74z" />
<glyph unicode="&#xef;" horiz-adv-x="200" d="M176 523q-21 0 -35 14.5t-14 35.5q0 20 14.5 34t34.5 14t34.5 -14.5t14.5 -34.5t-14.5 -34.5t-34.5 -14.5zM37 523q-20 0 -34.5 14.5t-14.5 35.5q0 20 14.5 34t34.5 14t34.5 -14.5t14.5 -34.5t-14.5 -34.5t-34.5 -14.5zM63 0v451h74v-451h-74z" />
<glyph unicode="&#xf0;" horiz-adv-x="529" d="M36 226q0 97 66 164.5t161 67.5q43 0 85 -20q-42 57 -107 108l-79 -52l-30 43l65 43l-27 18q-2 1 -45 24q-8 4 -14 8l38 50q64 -31 109 -60l81 53l32 -42l-65 -43q65 -54 102 -104q39 -53 62 -119.5t23 -125.5q0 -104 -66.5 -175t-163.5 -71q-93 0 -160 69t-67 164z M114 228q0 -71 43.5 -120t107.5 -49q62 0 106 49.5t44 118.5q0 71 -42.5 118t-106.5 47q-65 0 -108.5 -47t-43.5 -117z" />
<glyph unicode="&#xf1;" horiz-adv-x="491" d="M115 527q4 44 23.5 70.5t47.5 26.5q24 0 77 -21q54 -22 71 -22q25 0 35 38h44q-17 -97 -75 -97q-32 0 -112 34q-21 9 -37 9q-21 0 -31 -38h-43zM63 0v451h74v-76q35 45 67 64t72 19q41 0 77.5 -20t55.5 -53q20 -36 20 -118v-267h-74v269q0 66 -27 92q-29 27 -72 27 q-73 0 -119 -74v-314h-74z" />
<glyph unicode="&#xf2;" horiz-adv-x="528" d="M259 507l-133 140h90l95 -140h-52zM36 228q0 95 67 162.5t161 67.5q95 0 161.5 -67.5t66.5 -164.5t-66.5 -165t-161.5 -68t-161.5 68.5t-66.5 166.5zM114 229q0 -71 44 -120.5t106 -49.5t106 49.5t44 118.5t-43.5 117t-106.5 48q-62 0 -106 -47.5t-44 -115.5z" />
<glyph unicode="&#xf3;" horiz-adv-x="528" d="M238 507l96 140h93l-136 -140h-53zM36 228q0 95 67 162.5t161 67.5q95 0 161.5 -67.5t66.5 -164.5t-66.5 -165t-161.5 -68t-161.5 68.5t-66.5 166.5zM114 229q0 -71 44 -120.5t106 -49.5t106 49.5t44 118.5t-43.5 117t-106.5 48q-62 0 -106 -47.5t-44 -115.5z" />
<glyph unicode="&#xf4;" horiz-adv-x="528" d="M123 507l106 140h84l106 -140h-50l-98 86l-98 -86h-50zM36 228q0 95 67 162.5t161 67.5q95 0 161.5 -67.5t66.5 -164.5t-66.5 -165t-161.5 -68t-161.5 68.5t-66.5 166.5zM114 229q0 -71 44 -120.5t106 -49.5t106 49.5t44 118.5t-43.5 117t-106.5 48q-62 0 -106 -47.5 t-44 -115.5z" />
<glyph unicode="&#xf5;" horiz-adv-x="528" d="M134 527q4 44 23.5 70.5t47.5 26.5q24 0 77 -21q54 -22 71 -22q25 0 35 38h44q-17 -97 -75 -97q-32 0 -112 34q-21 9 -37 9q-21 0 -31 -38h-43zM36 228q0 95 67 162.5t161 67.5q95 0 161.5 -67.5t66.5 -164.5t-66.5 -165t-161.5 -68t-161.5 68.5t-66.5 166.5zM114 229 q0 -71 44 -120.5t106 -49.5t106 49.5t44 118.5t-43.5 117t-106.5 48q-62 0 -106 -47.5t-44 -115.5z" />
<glyph unicode="&#xf6;" horiz-adv-x="528" d="M348 523q-21 0 -35 14.5t-14 35.5q0 20 14.5 34t34.5 14t34.5 -14.5t14.5 -34.5t-14.5 -34.5t-34.5 -14.5zM186 523q-20 0 -34.5 14.5t-14.5 35.5q0 20 14.5 34t34.5 14t34.5 -14.5t14.5 -34.5t-14.5 -34.5t-34.5 -14.5zM36 228q0 95 67 162.5t161 67.5q95 0 161.5 -67.5 t66.5 -164.5t-66.5 -165t-161.5 -68t-161.5 68.5t-66.5 166.5zM114 229q0 -71 44 -120.5t106 -49.5t106 49.5t44 118.5t-43.5 117t-106.5 48q-62 0 -106 -47.5t-44 -115.5z" />
<glyph unicode="&#xf7;" d="M265 443q-21 0 -35.5 15t-14.5 35q0 21 15 35.5t36 14.5q20 0 34.5 -15t14.5 -35t-15 -35t-35 -15zM33 304v66h467v-66h-467zM215 180q0 21 15 35.5t36 14.5q20 0 34.5 -15t14.5 -35t-15 -35t-35 -15q-21 0 -35.5 15t-14.5 35z" />
<glyph unicode="&#xf8;" horiz-adv-x="528" d="M22 31l59 56q-45 66 -45 139q0 96 67 164t161 68q87 0 149 -56l61 57l37 -41l-60 -57q42 -63 42 -135q0 -97 -66.5 -165t-161.5 -68q-81 0 -146 54l-60 -58zM137 139l223 216q-41 37 -95 37q-63 0 -107 -48t-44 -117q0 -45 23 -88zM173 95q43 -36 91 -36q62 0 106.5 49.5 t44.5 118.5q0 46 -20 83z" />
<glyph unicode="&#xf9;" horiz-adv-x="492" d="M250 507l-133 140h90l95 -140h-52zM63 172v279h74v-255q0 -59 16 -87q26 -46 82 -46q36 0 69.5 20.5t50.5 52.5v315h74v-451h-74l2 79q-56 -86 -143 -86q-70 0 -110.5 48t-40.5 131z" />
<glyph unicode="&#xfa;" horiz-adv-x="492" d="M229 507l96 140h89l-132 -140h-53zM63 172v279h74v-255q0 -59 16 -87q26 -46 82 -46q36 0 69.5 20.5t50.5 52.5v315h74v-451h-74l2 79q-56 -86 -143 -86q-70 0 -110.5 48t-40.5 131z" />
<glyph unicode="&#xfb;" horiz-adv-x="492" d="M105 507l106 140h84l106 -140h-50l-98 86l-98 -86h-50zM63 172v279h74v-255q0 -59 16 -87q26 -46 82 -46q36 0 69.5 20.5t50.5 52.5v315h74v-451h-74l2 79q-56 -86 -143 -86q-70 0 -110.5 48t-40.5 131z" />
<glyph unicode="&#xfc;" horiz-adv-x="492" d="M334 523q-21 0 -35 14.5t-14 35.5q0 20 14.5 34t34.5 14t34.5 -14.5t14.5 -34.5t-14.5 -34.5t-34.5 -14.5zM171 523q-20 0 -34.5 14.5t-14.5 35.5q0 20 14.5 34t34.5 14t34.5 -14.5t14.5 -34.5t-14.5 -34.5t-34.5 -14.5zM63 172v279h74v-255q0 -59 16 -87q26 -46 82 -46 q36 0 69.5 20t50.5 52v316h74v-451h-74l2 79q-56 -86 -143 -86q-70 0 -110.5 48t-40.5 131z" />
<glyph unicode="&#xfd;" horiz-adv-x="447" d="M204 507l96 140h89l-132 -140h-53zM180 95l-170 356h79l132 -275l146 275h73l-357 -691h-76z" />
<glyph unicode="&#xfe;" horiz-adv-x="502" d="M137 24v-265h-74v910h74v-248q55 37 108 37q95 0 158 -67.5t63 -168.5q0 -97 -64.5 -163t-158.5 -66q-52 0 -106 31zM137 89q47 -30 95 -30q65 0 110.5 48.5t45.5 117.5q0 71 -46 119t-115 48q-45 0 -90 -24v-279z" />
<glyph unicode="&#xff;" horiz-adv-x="447" d="M316 523q-21 0 -35 14.5t-14 35.5q0 20 14.5 34t34.5 14t34.5 -14.5t14.5 -34.5t-14.5 -34.5t-34.5 -14.5zM150 523q-20 0 -34.5 14.5t-14.5 35.5q0 20 14.5 34t34.5 14t34.5 -14.5t14.5 -34.5t-14.5 -34.5t-34.5 -14.5zM180 95l-170 356h79l132 -275l146 275h73 l-357 -691h-76z" />
<glyph unicode="&#x152;" horiz-adv-x="882" d="M196 46q-72 42 -114 118.5t-42 165.5q0 98 50.5 178.5t139.5 122.5q73 36 181 36h416v-67h-289v-230h281v-67h-281v-236h305v-67h-441q-126 0 -206 46zM260 97q33 -18 63 -24t90 -6h41v533h-42q-90 0 -151 -34q-63 -35 -99 -97t-36 -137t36 -138t98 -97z" />
<glyph unicode="&#x153;" horiz-adv-x="803" d="M36 226q0 98 64.5 165t158.5 67q109 0 178 -95q50 95 152 95q100 0 152 -85q29 -48 30 -137h-293q-1 -8 -1 -18q0 -71 39.5 -115t104.5 -44t149 49v-66q-79 -49 -165 -49q-56 0 -95 22.5t-72 74.5q-32 -39 -52 -57q-49 -40 -125 -40q-97 0 -161 66.5t-64 166.5zM479 282 h221q-7 56 -35.5 87t-73.5 31q-58 0 -91 -51q-15 -22 -21 -67zM114 225q0 -70 42 -118t104 -48q64 0 103.5 47t39.5 122q0 73 -40 118.5t-104 45.5q-65 0 -106 -46q-39 -46 -39 -121z" />
<glyph unicode="&#x178;" horiz-adv-x="589" d="M407 722q-23 0 -38.5 16t-15.5 39q0 22 16 37.5t38 15.5t38 -16t16 -38t-16 -38t-38 -16zM194 722q-23 0 -38.5 16t-15.5 39q0 21 16 37t38 16t38 -16t16 -38t-16 -38t-38 -16zM252 0v350l-247 317h107l182 -245l181 245h108l-247 -317v-350h-84z" />
<glyph unicode="&#x2c6;" horiz-adv-x="500" d="M102 507l106 140h84l106 -140h-50l-98 86l-98 -86h-50z" />
<glyph unicode="&#x2dc;" horiz-adv-x="500" d="M101 527q4 44 23.5 70.5t47.5 26.5q24 0 77 -21q54 -22 71 -22q25 0 35 38h44q-17 -97 -75 -97q-32 0 -112 34q-21 9 -37 9q-21 0 -31 -38h-43z" />
<glyph unicode="&#x2000;" horiz-adv-x="437" />
<glyph unicode="&#x2001;" horiz-adv-x="875" />
<glyph unicode="&#x2002;" horiz-adv-x="437" />
<glyph unicode="&#x2003;" horiz-adv-x="875" />
<glyph unicode="&#x2004;" horiz-adv-x="291" />
<glyph unicode="&#x2005;" horiz-adv-x="218" />
<glyph unicode="&#x2006;" horiz-adv-x="145" />
<glyph unicode="&#x2007;" horiz-adv-x="145" />
<glyph unicode="&#x2008;" horiz-adv-x="109" />
<glyph unicode="&#x2009;" horiz-adv-x="175" />
<glyph unicode="&#x200a;" horiz-adv-x="48" />
<glyph unicode="&#x2010;" horiz-adv-x="259" d="M0 191v71h259v-71h-259z" />
<glyph unicode="&#x2011;" horiz-adv-x="259" d="M0 191v71h259v-71h-259z" />
<glyph unicode="&#x2013;" d="M33 191v71h467v-71h-467z" />
<glyph unicode="&#x2014;" horiz-adv-x="638" d="M0 191v71h638v-71h-638z" />
<glyph unicode="&#x2018;" horiz-adv-x="281" d="M145 449q-34 0 -56 25t-22 63q0 55 40 92.5t106 44.5l2 -14q-26 -13 -42 -36t-15 -46q55 -11 55 -63q0 -28 -19.5 -47t-48.5 -19z" />
<glyph unicode="&#x2019;" horiz-adv-x="281" d="M68 450l-1 14q26 13 42 36.5t15 45.5q-55 12 -55 63q0 28 19.5 47t48.5 19q33 0 55.5 -25.5t22.5 -62.5q0 -55 -40 -92.5t-107 -44.5z" />
<glyph unicode="&#x201a;" horiz-adv-x="281" d="M69 63q0 28 19.5 47t48.5 19q33 0 55.5 -25.5t22.5 -62.5q0 -55 -40 -92.5t-107 -44.5l-1 14q26 13 42 36t15 45q-55 12 -55 64z" />
<glyph unicode="&#x201c;" horiz-adv-x="475" d="M339 449q-33 0 -55.5 25.5t-22.5 62.5q0 55 40 92.5t106 44.5l2 -14q-24 -12 -40.5 -34t-16.5 -43v-5q55 -12 55 -63q0 -28 -19.5 -47t-48.5 -19zM145 449q-33 0 -55.5 25.5t-22.5 62.5q0 55 40 92.5t106 44.5l2 -14q-26 -13 -42 -36.5t-15 -45.5q55 -12 55 -63 q0 -28 -19.5 -47t-48.5 -19z" />
<glyph unicode="&#x201d;" horiz-adv-x="475" d="M262 449l-1 14q57 31 57 76v5q-56 12 -56 64q0 28 20 47t49 19q33 0 55.5 -25.5t22.5 -62.5q0 -55 -40.5 -92.5t-106.5 -44.5zM68 449l-1 14q57 31 57 76v5q-55 14 -55 64q0 28 19.5 47t48.5 19q33 0 55.5 -25.5t22.5 -62.5q0 -55 -40.5 -92.5t-106.5 -44.5z" />
<glyph unicode="&#x201e;" horiz-adv-x="475" d="M262 63q0 28 20 47t49 19q33 0 55.5 -25.5t22.5 -62.5q0 -56 -40.5 -93.5t-106.5 -43.5l-1 14q26 13 41.5 34t15.5 42v5q-56 12 -56 64zM69 63q0 28 19.5 47t48.5 19q33 0 55.5 -25.5t22.5 -62.5q0 -56 -40.5 -93.5t-106.5 -43.5l-1 14q26 13 41.5 34t15.5 42v5 q-55 12 -55 64z" />
<glyph unicode="&#x2022;" horiz-adv-x="667" d="M335 200q-58 0 -98.5 40.5t-40.5 97.5q0 58 40.5 98.5t99.5 40.5q56 0 96.5 -41t40.5 -98t-40.5 -97.5t-97.5 -40.5z" />
<glyph unicode="&#x2026;" horiz-adv-x="745" d="M557 58q0 26 19 45t45 19q27 0 46 -19t19 -45q0 -27 -19 -46t-46 -19q-26 0 -45 19t-19 46zM308 58q0 26 19 45t45 19q27 0 46 -19t19 -45q0 -27 -19 -46t-46 -19q-26 0 -45 19t-19 46zM60 58q0 26 19 45t45 19q27 0 46 -19t19 -45q0 -27 -19 -46t-46 -19q-26 0 -45 19 t-19 46z" />
<glyph unicode="&#x202f;" horiz-adv-x="175" />
<glyph unicode="&#x2039;" horiz-adv-x="310" d="M206 18l-173 218l174 211l63 -12l-169 -199l168 -207z" />
<glyph unicode="&#x203a;" horiz-adv-x="310" d="M41 29l168 207l-169 199l63 12l174 -211l-173 -218z" />
<glyph unicode="&#x205f;" horiz-adv-x="218" />
<glyph unicode="&#x20ac;" horiz-adv-x="704" d="M36 249l26 60h49q-1 9 -1 26q0 18 1 27h-75l26 60h59q31 113 121 182.5t206 69.5q118 0 221 -83l-33 -80q-82 89 -188 89q-82 0 -146.5 -48t-92.5 -130h388l-25 -60h-376q-1 -12 -1 -29q0 -15 1 -24h354l-26 -60h-317q26 -84 90.5 -133t149.5 -49q110 0 190 89v-104 q-93 -59 -190 -59q-118 0 -208 70.5t-118 185.5h-85z" />
<glyph unicode="&#x2122;" horiz-adv-x="779" d="M369 287v380h56l128 -162l133 162h51v-380h-56v296l-128 -156l-128 157v-297h-56zM135 287v336h-134v44h325v-44h-135v-336h-56z" />
</font>
</defs>
</svg>
